<svg width="40" height="41" viewBox="0 0 40 41" fill="none" xmlns="http://www.w3.org/2000/svg">
<path fill-rule="evenodd" clip-rule="evenodd" d="M10.5861 15.134C10.9611 14.7591 11.4697 14.5484 12.0001 14.5484C12.5304 14.5484 13.039 14.7591 13.4141 15.134L20.0001 21.72L26.5861 15.134C26.7706 14.943 26.9912 14.7906 27.2353 14.6858C27.4793 14.581 27.7417 14.5258 28.0073 14.5235C28.2728 14.5212 28.5362 14.5718 28.782 14.6724C29.0278 14.7729 29.2511 14.9214 29.4389 15.1092C29.6266 15.297 29.7751 15.5203 29.8757 15.7661C29.9763 16.0119 30.0269 16.2753 30.0246 16.5408C30.0223 16.8064 29.9671 17.0688 29.8623 17.3128C29.7574 17.5568 29.6051 17.7775 29.4141 17.962L21.4141 25.962C21.039 26.337 20.5304 26.5476 20.0001 26.5476C19.4697 26.5476 18.9611 26.337 18.5861 25.962L10.5861 17.962C10.2111 17.587 10.0005 17.0783 10.0005 16.548C10.0005 16.0177 10.2111 15.5091 10.5861 15.134V15.134Z" fill="white"/>
</svg>
