<svg width="58" height="58" viewBox="0 0 58 58" fill="none" xmlns="http://www.w3.org/2000/svg">
<circle cx="29" cy="29" r="29" fill="#DA4167"/>
<path d="M24.0007 27.3333C27.6825 27.3333 30.6673 24.3486 30.6673 20.6667C30.6673 16.9848 27.6825 14 24.0007 14C20.3188 14 17.334 16.9848 17.334 20.6667C17.334 24.3486 20.3188 27.3333 24.0007 27.3333Z" stroke="white" stroke-width="3" stroke-linecap="round" stroke-linejoin="round"/>
<path d="M14 44V40.6667C14 38.8986 14.7024 37.2029 15.9526 35.9526C17.2029 34.7024 18.8986 34 20.6667 34H27.3333C29.1014 34 30.7971 34.7024 32.0474 35.9526C33.2976 37.2029 34 38.8986 34 40.6667V44" stroke="white" stroke-width="3" stroke-linecap="round" stroke-linejoin="round"/>
<path d="M35.666 14.2167C37.1 14.5838 38.3711 15.4178 39.2787 16.5872C40.1864 17.7565 40.6791 19.1947 40.6791 20.675C40.6791 22.1553 40.1864 23.5935 39.2787 24.7628C38.3711 25.9322 37.1 26.7662 35.666 27.1333" stroke="white" stroke-width="3" stroke-linecap="round" stroke-linejoin="round"/>
<path d="M44 44V40.6667C43.9915 39.1953 43.4965 37.768 42.5921 36.6073C41.6877 35.4467 40.4247 34.6178 39 34.25" stroke="white" stroke-width="3" stroke-linecap="round" stroke-linejoin="round"/>
</svg>
