<svg xmlns="http://www.w3.org/2000/svg" version="1.1" xmlns:xlink="http://www.w3.org/1999/xlink" xmlns:svgjs="http://svgjs.com/svgjs" width="125" height="125"><svg width="125" height="125" viewBox="0 0 125 125" fill="none" xmlns="http://www.w3.org/2000/svg">
<mask id="SvgjsMask1000" fill="white">
<path d="M54.7224 1.00994C35.8178 3.52674 19.1154 14.595 9.47717 31.0114C5.90217 37.1032 3.78577 42.3942 2.32717 49.058C1.32617 53.5768 0.954367 57.2662 0.982967 62.5C1.01157 70.2506 1.61217 73.9972 3.98597 81.948C5.70197 87.668 9.67737 95.104 13.8244 100.452C26.6372 116.897 46.886 125.906 67.4494 124.305C82.1212 123.189 95.4775 117.298 105.773 107.402C114.668 98.8506 120.56 88.669 123.362 77.0288C124.707 71.5376 124.935 69.4212 124.935 62.786C124.964 55.7504 124.621 52.8618 123.076 46.8844C119.244 31.9838 110.121 19.2568 96.9647 10.5337C93.7901 8.41734 87.2978 5.21415 83.6084 3.92715C74.6852 0.809744 64.2462 -0.24846 54.7224 1.00994ZM60.042 7.61655L60.328 11.163L61.901 11.1916C64.1604 11.2488 64.189 11.2487 64.189 11.8493C64.189 12.307 63.903 12.4213 62.3872 12.5929C61.4148 12.7073 60.2136 12.7359 59.756 12.6787C58.9552 12.5929 58.898 12.4786 58.6978 11.163C58.3546 8.56035 58.4404 4.21314 58.8408 4.07014C59.613 3.75554 59.756 4.18454 60.042 7.61655ZM67.1634 4.04154C67.5066 4.18454 67.5638 4.55634 67.4208 6.10075L67.2778 8.01695L69.1082 6.21515C70.2236 5.12835 71.1674 4.44194 71.5678 4.44194C72.483 4.44194 72.34 4.87094 70.91 6.41534L69.623 7.78815L70.195 9.18955C70.5382 9.96175 71.0244 11.0486 71.339 11.6492C71.911 12.7646 71.8538 13.0219 70.91 13.0219C70.3952 13.0219 70.1092 12.6502 69.48 11.163C69.051 10.1334 68.5648 9.21815 68.3932 9.10375C67.8784 8.78915 66.763 10.3907 66.763 11.4203C66.763 12.0495 66.5914 12.45 66.3054 12.5644C65.476 12.879 65.2472 12.4214 65.4188 10.6196C65.5046 9.67575 65.6762 7.90254 65.7906 6.72994C65.905 5.55734 66.1052 4.41334 66.2768 4.21314C66.5914 3.81274 66.5914 3.81274 67.1634 4.04154ZM53.5498 5.07114C54.2076 5.87194 57.611 11.9923 57.611 12.3355C57.611 13.0505 56.2954 12.7932 55.9522 11.9924C55.7234 11.5062 55.4374 11.3059 55.0942 11.4203C54.8368 11.5061 54.1504 11.6492 53.5784 11.735C52.7204 11.9066 52.4916 12.0781 52.2628 12.8217C52.0912 13.4509 51.8052 13.7656 51.3762 13.8228C50.604 13.9372 50.604 14.0516 51.462 9.18955C52.2056 5.01395 52.6918 4.04154 53.5498 5.07114ZM75.7434 5.52875C75.8864 5.75755 75.629 7.15894 74.8854 10.4479C74.6566 11.4775 74.3992 12.593 74.3134 12.9648C74.2276 13.451 73.9988 13.594 73.5412 13.5368C72.769 13.4224 72.7976 12.6788 73.6556 9.01795C73.9416 7.67375 74.2848 6.30095 74.342 5.92915C74.485 5.32855 75.4288 5.04255 75.7434 5.52875ZM48.6592 9.87595C48.8308 11.9923 48.9166 13.9658 48.8308 14.2232C48.5448 15.2814 47.6582 14.738 46.1996 12.5929C45.3702 11.4203 44.6266 10.4479 44.5408 10.4479C44.455 10.4479 44.4264 11.7064 44.4836 13.2222C44.598 15.882 44.5694 16.025 43.9974 16.1108C43.5398 16.168 42.9392 15.5101 41.0516 12.7359C39.7646 10.8483 38.7922 9.16095 38.878 9.01795C39.3642 8.24575 40.2222 8.81775 41.4806 10.734C42.2242 11.8208 42.882 12.7359 42.9392 12.7359C43.025 12.7359 43.025 11.5348 42.9964 10.0761C42.882 7.58795 42.9106 7.44495 43.4826 7.35915C43.9116 7.30195 44.4264 7.78814 45.599 9.44695C46.4284 10.6195 47.172 11.5633 47.2292 11.5061C47.2864 11.4489 47.2006 10.3336 47.0576 9.01795C46.7716 6.30095 46.8574 5.81475 47.7154 5.92915C48.2874 6.01495 48.3446 6.27234 48.6592 9.87595ZM79.8618 6.64415C80.0048 6.93015 80.4052 8.24575 80.777 9.58995C81.1202 10.9342 81.492 12.1353 81.635 12.2497C81.7494 12.3927 82.1784 11.4776 82.5788 10.2477C83.2653 8.07415 83.8658 7.41635 84.5236 8.07415C84.8382 8.38875 82.636 15.1955 82.0354 15.882C81.349 16.597 80.6626 15.453 79.919 12.3928C79.5472 10.877 79.1468 9.67575 79.061 9.73295C78.9466 9.81875 78.5748 10.734 78.2316 11.7922C77.917 12.8504 77.5166 13.9086 77.3736 14.1374C77.0876 14.595 75.8006 14.2804 76.0008 13.7942C76.058 13.594 76.6872 11.8207 77.345 9.79015C78.3174 6.90154 78.6606 6.15794 79.0896 6.15794C79.3756 6.15794 79.7188 6.38675 79.8618 6.64415ZM90.072 10.5623C91.1302 11.0199 91.9311 12.2784 91.9311 13.451C91.9311 14.0516 91.8166 14.1946 91.3018 14.1088C90.8728 14.0516 90.6155 13.7369 90.4439 13.0791C90.1293 11.9351 89.0997 11.3632 88.1273 11.7922C87.7841 11.9638 87.1262 12.8218 86.6972 13.6798C85.5532 16.025 85.6962 16.883 87.2406 17.1976C87.8698 17.312 88.2702 17.2262 88.5848 16.883C89.214 16.2538 89.1855 15.9678 88.4991 15.596C87.8985 15.2814 87.7269 14.595 88.2131 14.309C88.4991 14.1374 90.6441 15.1097 90.9015 15.5387C91.1589 15.9964 89.6431 18.0842 88.785 18.456C87.5552 18.9708 86.0966 18.599 85.2386 17.5694C84.1518 16.2824 84.1518 15.3672 85.3531 13.0219C86.7259 10.3335 87.9556 9.67575 90.072 10.5623ZM36.1324 15.167C38.9352 19.5714 38.6778 20.172 34.7024 18.3416C31.0416 16.6828 31.0702 16.6828 32.7004 19.1996C33.7586 20.8584 34.0446 21.5448 33.8158 21.8022C33.6442 22.0024 33.3582 22.174 33.1866 22.174C33.015 22.174 31.8424 20.6296 30.6126 18.7134C28.5534 15.5674 28.3818 15.2242 28.8108 14.8238C29.2398 14.3948 29.5258 14.4806 32.3 15.6818C35.6748 17.1404 35.7034 17.1404 33.8444 14.4234C32.6718 12.6788 32.5574 11.878 33.5012 11.878C33.8444 11.878 34.731 12.9934 36.1324 15.167ZM99.7389 16.9688C100.797 17.8268 101.655 18.6848 101.655 18.9136C101.655 19.6 101.083 19.6286 100.168 18.9994L99.2813 18.3702L98.7379 19.0566C95.5919 22.9748 94.7625 23.8614 94.3621 23.7184C93.5899 23.4038 93.9045 22.603 95.8207 20.315C96.8503 19.0566 97.7655 17.8554 97.8513 17.6552C97.9371 17.4264 97.6797 16.9688 97.1935 16.597C96.5071 16.0536 96.4213 15.882 96.7645 15.4816C97.2221 14.9382 97.2507 14.9668 99.7389 16.9688ZM26.8088 17.455C26.9232 17.7124 26.437 18.3416 25.5218 19.1424L24.0346 20.4294L24.721 21.173C25.0928 21.5734 25.4932 21.888 25.6076 21.888C25.7506 21.888 26.294 21.4876 26.8088 21.03C27.3522 20.5438 28.01 20.172 28.2674 20.172C29.0682 20.172 28.7536 21.2302 27.724 22.0024C26.5228 22.9176 26.4942 23.2894 27.438 24.176L28.153 24.8624L29.3828 23.6612C30.6412 22.4028 31.4134 22.1454 31.6708 22.889C31.871 23.3752 28.3818 26.5498 27.7812 26.4068C27.152 26.2638 22.433 20.9156 22.4902 20.4294C22.6046 19.886 25.7506 17.026 26.2654 17.026C26.4942 17.026 26.723 17.2262 26.8088 17.455ZM69.0224 17.598C82.2928 19.5428 93.3611 26.464 100.797 37.475C102.113 39.4198 104.458 43.91 105.259 46.0836C108.633 54.9782 109.263 64.3018 107.06 73.1678C104.915 81.7478 100.654 89.0694 94.1619 95.2756C85.9251 103.141 75.9436 107.288 64.4464 107.602C59.184 107.774 56.2096 107.488 51.9482 106.372C34.731 101.968 22.2328 88.7834 18.429 71.08C17.571 67.1332 17.4852 58.6104 18.2288 54.7208C20.1736 44.8824 24.3492 37.0174 31.2704 30.182C38.3346 23.2036 46.6 19.1424 56.896 17.598C61.4148 16.9116 64.3892 16.9116 69.0224 17.598ZM105.058 21.7736C106.66 23.1178 106.517 25.32 104.715 26.9502C101.912 29.4384 100.797 29.6672 99.1955 28.0656C98.3947 27.2648 98.2231 26.893 98.2231 25.8348C98.2231 24.6336 98.3375 24.4334 100.053 22.8032C101.684 21.2302 102.027 21.03 103.028 21.03C103.857 21.03 104.429 21.2302 105.058 21.7736ZM21.432 23.604C22.0612 23.8614 22.1184 23.9758 21.861 24.4906C21.6322 24.891 21.3462 25.034 20.9458 24.9196C19.7732 24.6336 18.5148 25.9206 18.858 27.036C19.1154 27.8082 21.8038 29.896 22.6046 29.896C23.9774 29.896 24.6638 28.1514 23.6914 27.179C23.2624 26.75 23.1766 26.7786 22.5474 27.322C21.9182 27.9512 21.289 27.894 21.289 27.2362C21.3176 26.7214 22.9192 25.034 23.4054 25.034C23.6342 25.034 24.2062 25.4916 24.6924 26.035C25.9794 27.4936 25.9508 29.0094 24.6066 30.3536C23.2052 31.755 21.8324 31.7264 19.9162 30.2106C17.3136 28.1228 16.8274 27.036 17.714 25.2914C18.1716 24.462 19.6588 23.318 20.3452 23.318C20.5168 23.318 21.003 23.4324 21.432 23.604ZM109.606 27.0932C109.663 27.4078 108.948 28.0942 107.375 29.2096C104.687 31.0972 104.2 31.8122 104.915 32.899C105.63 34.0144 106.574 33.8142 109.12 32.041C110.349 31.183 111.551 30.468 111.779 30.468C112.466 30.468 112.523 31.2402 111.865 31.8122C110.607 32.9562 107.489 35.0154 106.746 35.187C105.23 35.5588 103.085 33.6426 103.085 31.898C103.114 30.6968 103.714 30.0104 106.231 28.2086C108.691 26.464 109.434 26.2066 109.606 27.0932ZM18.2574 31.8694C20.3166 32.2984 22.0326 32.8132 22.0898 32.9848C22.29 33.614 21.6322 34.1002 20.7456 33.9572C20.002 33.8714 19.8018 33.9858 19.1726 35.0154C18.286 36.3882 18.286 36.4168 18.8866 37.0746C19.4014 37.6466 19.1726 38.8478 18.572 38.7048C17.9142 38.5618 13.281 32.3842 13.281 31.6692C13.281 30.8398 13.6242 30.8684 18.2574 31.8694ZM115.097 35.902C115.555 36.8458 115.955 37.904 115.955 38.2472C115.955 39.8774 114.039 41.1072 112.523 40.478C111.551 40.0776 111.636 40.0204 110.178 42.1082C109.406 43.195 109.234 43.2522 108.805 42.4514C108.519 41.9652 108.662 41.6506 109.663 40.3064C110.492 39.2196 110.778 38.5618 110.664 38.19C110.435 37.475 110.063 37.475 108.662 38.19C107.604 38.7334 106.803 38.9336 106.803 38.6476C106.803 38.5904 106.717 38.333 106.631 38.0756C106.517 37.761 107.289 37.2176 109.863 35.9306C111.722 34.9868 113.467 34.2146 113.724 34.2146C114.067 34.186 114.525 34.758 115.097 35.902ZM14.4536 38.047C17.8856 39.5342 18.7722 40.2492 17.714 40.6782C17.428 40.764 16.57 40.5924 15.7978 40.2492L14.3964 39.6486L13.8244 40.9356C13.5384 41.6506 13.281 42.337 13.281 42.48C13.281 42.5944 13.9102 42.9662 14.6824 43.3094C16.3412 44.0244 16.5414 44.2246 16.0552 44.8824C15.7406 45.3114 15.3688 45.197 12.1942 43.7956C10.2494 42.9662 8.53337 42.1368 8.39037 41.9938C8.07577 41.6792 8.33317 40.764 8.76218 40.764C8.90518 40.764 9.56298 41.0214 10.1922 41.336C11.708 42.0796 11.7652 42.051 12.2228 41.1072C13.1666 39.2768 13.138 39.1338 11.5936 38.4474C10.2208 37.8754 9.76318 37.2176 10.3352 36.6742C10.6212 36.3596 10.707 36.3882 14.4536 38.047ZM117.328 42.3656C118.558 43.2236 119.215 45.4258 118.558 46.4554C118.1 47.1704 117.385 46.5698 117.385 45.483C117.385 44.1674 116.956 43.338 116.27 43.338C115.354 43.338 115.011 44.053 115.24 45.5974C115.469 47.342 115.097 48.1142 113.781 48.6576C112.523 49.1724 111.551 48.8006 110.578 47.342C109.663 45.9978 109.749 43.8242 110.75 43.6812C111.322 43.5954 111.379 43.7098 111.379 44.7394C111.379 46.4268 111.894 47.342 112.838 47.342C113.81 47.342 113.896 47.056 113.724 44.9968C113.61 43.5382 113.667 43.3094 114.325 42.6516C115.183 41.7936 116.355 41.6792 117.328 42.3656ZM11.2218 45.9406C13.2238 46.4268 14.9684 46.913 15.0828 47.056C15.7406 47.6566 14.6252 48.4574 11.851 49.3726C10.278 49.8874 8.99098 50.4022 8.99098 50.488C8.99098 50.5738 10.0492 50.8884 11.3362 51.203C13.138 51.632 13.7386 51.8894 13.7958 52.3184C13.853 52.6044 13.7958 52.9476 13.6528 53.062C13.5384 53.1764 11.7652 52.8618 9.70598 52.3184C7.67537 51.8036 5.90217 51.3746 5.78777 51.346C5.64477 51.346 5.55897 51.0314 5.55897 50.6596C5.55897 49.9446 5.70197 49.8588 9.90618 48.4288L11.8224 47.7996L10.993 47.4278C10.5354 47.2562 9.59158 46.9988 8.87657 46.913C7.30357 46.6556 6.53137 46.1694 6.78877 45.5116C7.01757 44.911 6.98897 44.911 11.2218 45.9406ZM116.355 54.2632C116.584 55.636 116.47 56.494 116.041 56.494C115.44 56.4654 115.154 55.922 114.983 54.4062C114.782 52.776 114.782 52.7188 115.44 52.8332C115.984 52.8904 116.127 53.1764 116.355 54.2632ZM5.95937 55.8362L5.90217 57.8668L6.90317 57.9812C7.98997 58.1242 8.01857 58.0956 8.27597 56.1222C8.41897 55.0354 8.56197 54.778 9.01958 54.778C9.50578 54.778 9.56298 54.9782 9.56298 56.4654C9.56298 58.0956 9.59158 58.1528 10.4496 58.3244C11.565 58.5532 11.851 58.353 11.851 57.4092C11.851 56.9802 11.9368 56.1508 12.0512 55.5502C12.1942 54.6636 12.3086 54.4634 12.8234 54.5492C13.3382 54.635 13.424 54.8066 13.3668 55.779C13.1952 58.4388 12.9378 59.8974 12.6232 60.0118C12.2514 60.1262 5.41597 59.4398 4.75817 59.211C4.44357 59.0966 4.41497 58.5818 4.55797 56.8372C4.78677 54.0058 4.92977 53.5768 5.50177 53.6912C5.90217 53.777 5.98797 54.1488 5.95937 55.8362ZM8.90517 62.2712C9.30558 62.643 9.56298 63.215 9.56298 63.7584C9.56298 65.7032 9.76318 65.932 11.4506 65.932C12.995 65.932 13.3954 66.1608 13.138 66.8758C12.9092 67.4192 4.95837 67.791 4.64377 67.2762C4.21477 66.6184 4.38637 63.2436 4.87257 62.5572C5.78777 61.213 7.67537 61.0986 8.90517 62.2712ZM12.8234 69.9074C14.2248 71.1086 14.3678 73.368 13.1094 74.512C12.423 75.1698 9.82038 75.942 8.21877 75.942C6.96037 75.942 5.58757 74.6836 5.38737 73.368C5.04417 71.223 6.15957 70.0504 9.10537 69.4784C11.0502 69.1066 12.0226 69.221 12.8234 69.9074ZM120.989 70.937C121.36 71.8522 120.56 72.1954 117.871 72.2812L115.24 72.367L117.614 73.7398C120.817 75.5988 120.731 75.9992 117.128 76.371C114.096 76.6856 114.096 76.7428 117.185 78.2014C118.529 78.8592 119.101 79.2882 119.101 79.66C119.101 79.946 118.958 80.2892 118.815 80.375C118.5 80.5752 112.123 77.3434 111.379 76.6284C111.064 76.3138 111.036 76.085 111.265 75.7132C111.522 75.3414 112.123 75.1984 114.268 75.084L116.956 74.941L114.468 73.5682C110.635 71.4804 111.036 70.8512 116.27 70.7082C118.214 70.6796 120.045 70.5938 120.331 70.5652C120.617 70.5366 120.903 70.7082 120.989 70.937ZM14.2534 76.8C15.14 77.1432 15.855 78.4588 15.855 79.803C15.855 81.2902 14.7396 82.2912 12.2228 83.0634C10.2494 83.6926 10.135 83.6926 9.13398 83.2064C7.21777 82.3198 6.70297 80.089 8.04717 78.516C8.76217 77.658 8.84798 77.6294 9.19118 78.1156C9.50578 78.5446 9.47718 78.7162 9.13398 79.2596C8.61917 80.0604 8.59057 81.1472 9.04817 81.6048C9.59158 82.1482 11.136 82.0052 12.852 81.2616C14.3392 80.5752 14.425 80.4894 14.425 79.517C14.425 78.6018 14.3106 78.4302 13.424 78.0584C12.7662 77.801 12.423 77.4578 12.423 77.086C12.423 76.4568 13.0808 76.3424 14.2534 76.8ZM114.039 81.4904C118.186 85.4372 118.157 85.4944 112.523 85.3228C110.206 85.237 108.176 85.094 108.004 84.9796C107.375 84.6078 108.176 83.664 109.12 83.664C109.863 83.664 110.035 83.4924 110.521 82.377C111.093 81.0328 111.036 80.375 110.349 80.1176C109.949 79.946 109.806 79.0594 110.149 78.7162C110.55 78.2872 111.064 78.659 114.039 81.4904ZM111.036 87.954C113.209 89.2124 114.239 89.9846 114.239 90.3278C114.239 91.3288 113.41 91.1 110.635 89.4126C107.518 87.525 107.461 87.525 106.488 89.4412C105.859 90.6424 105.23 91.0714 104.744 90.5852C104.515 90.3564 104.715 89.7844 105.373 88.6118C106.488 86.6384 107.089 85.8948 107.518 86.0092C107.69 86.0664 109.291 86.9244 111.036 87.954ZM18.4004 90.4422C19.0296 91.4432 19.1726 91.9008 18.9438 92.1582C18.7722 92.3584 18.5434 92.53 18.429 92.53C18.0286 92.53 16.4556 89.9274 16.6272 89.4984C16.9132 88.7548 17.571 89.098 18.4004 90.4422ZM107.089 93.8742C108.805 95.2184 110.235 96.5054 110.235 96.677C110.235 96.8772 110.063 97.1632 109.863 97.3348C109.606 97.5636 109.148 97.3634 108.09 96.534C107.318 95.9334 106.631 95.4472 106.603 95.5044C106.546 95.533 106.746 96.6484 107.003 97.9354C107.375 99.6514 107.432 100.395 107.203 100.767C106.66 101.596 106.403 101.31 105.945 99.4798C105.716 98.5074 105.43 97.6208 105.316 97.535C105.23 97.4206 104 97.1918 102.599 97.0202C100.397 96.7056 100.082 96.6198 100.082 96.105C100.082 95.5616 100.254 95.533 102.627 95.6188L105.144 95.7046L104.973 94.9038C104.858 94.4748 104.372 93.7026 103.886 93.1878C103.142 92.4156 103.056 92.1868 103.371 91.815C103.571 91.5862 103.771 91.386 103.829 91.386C103.886 91.386 105.344 92.5014 107.089 93.8742ZM104.429 103.598C103.972 104.084 103.8 103.941 101.083 101.253C98.3661 98.536 97.7655 97.6208 98.5949 97.3062C98.7665 97.2204 100.282 98.5074 101.941 100.138C104.772 102.94 104.915 103.141 104.429 103.598ZM29.3542 99.3654C30.4982 100.395 30.6126 101.882 29.6116 102.94C28.7536 103.856 23.6628 105.886 23.2338 105.457C22.719 104.942 23.1766 104.399 24.4064 103.97C25.865 103.512 26.0652 103.226 25.4646 102.569C24.864 101.911 24.8926 100.967 25.4932 99.966C26.4084 98.393 27.9814 98.1356 29.3542 99.3654ZM99.2527 102.54C102.656 106.887 102.484 107.402 98.0229 105.943C96.4785 105.457 95.1343 104.971 95.0199 104.914C94.5623 104.656 94.8483 105.114 96.3641 107.087C97.2221 108.203 97.9371 109.175 97.9371 109.261C97.9371 109.318 97.6797 109.518 97.3651 109.69C96.8789 109.947 96.5357 109.633 94.3621 106.944C92.0169 104.027 91.5306 103.026 92.3028 102.74C92.4744 102.683 93.9903 103.055 95.6205 103.57C97.2793 104.113 98.6521 104.485 98.7093 104.456C98.7379 104.399 98.0801 103.484 97.2221 102.397C95.6205 100.395 95.5061 100.195 95.8493 99.8802C96.3927 99.3082 97.1935 99.9374 99.2527 102.54ZM34.9312 103.884C35.017 104.084 34.4164 104.571 33.6156 104.971C32.8148 105.371 32.157 105.772 32.157 105.829C32.157 105.915 32.4144 106.229 32.729 106.544C33.5298 107.345 33.444 108.603 32.5574 109.661C31.9568 110.405 31.6136 110.548 30.584 110.548C29.5544 110.548 29.2112 110.405 28.582 109.633C27.152 107.945 27.9814 106.487 31.4706 104.513C33.4154 103.455 34.731 103.198 34.9312 103.884ZM90.3294 105.514C91.3304 105.915 93.1037 108.489 93.4755 110.033C93.8759 111.778 92.2457 113.694 90.3867 113.694C89.3284 113.694 88.2131 113.093 88.2131 112.521C88.2131 111.921 88.8423 111.663 89.3857 112.007C89.9577 112.378 91.1875 112.321 91.5879 111.921C92.3315 111.177 91.7594 109.061 90.358 107.288C89.9004 106.687 88.3847 106.544 87.8699 107.059C87.5266 107.402 87.4123 109.004 87.7269 109.318C87.8413 109.404 88.2702 109.347 88.6992 109.147C89.4142 108.803 89.9004 109.061 89.929 109.747C89.929 110.005 87.8126 111.12 87.3836 111.12C86.9546 111.12 85.925 109.004 85.925 108.174C85.925 107.259 86.926 106.001 88.0415 105.514C89.1569 105.028 89.1854 105.028 90.3294 105.514ZM40.0792 107.002C40.1364 107.173 39.593 107.717 38.878 108.231L37.5624 109.175L38.306 109.833C39.3356 110.805 39.307 112.321 38.1916 113.437C37.2478 114.352 36.2754 114.495 35.0456 113.837C34.1304 113.379 33.873 112.893 33.873 111.606C33.9016 110.434 34.1876 110.09 36.733 108.146C38.735 106.63 39.8218 106.258 40.0792 107.002ZM44.5122 108.889C44.9126 109.232 44.8268 109.547 43.8544 111.978C43.2538 113.465 42.7676 114.781 42.739 114.895C42.739 115.038 43.0536 115.124 43.454 115.124C44.2262 115.124 44.4264 115.725 43.8258 116.182C42.9392 116.869 40.737 116.926 40.737 116.268C40.737 115.782 43.6542 108.546 43.8544 108.546C43.9688 108.546 44.2548 108.718 44.5122 108.889ZM81.492 109.518C82.2642 110.062 81.8638 110.948 80.92 110.72C80.5196 110.605 79.7474 110.72 79.1754 110.977C78.3174 111.32 78.1744 111.52 78.2602 112.178C78.346 112.979 78.3746 112.979 80.2908 112.979C82.0926 112.979 82.3214 113.036 82.9506 113.78C83.7228 114.695 83.8372 115.868 83.208 116.754C82.2642 118.127 78.6034 118.728 78.8322 117.469C78.8894 117.126 79.2898 116.926 80.1192 116.811C81.5492 116.64 82.2642 116.096 82.1498 115.296C82.064 114.781 81.8638 114.695 80.4624 114.666C77.4308 114.609 76.7158 114.094 76.7158 112.064C76.7158 110.863 77.345 110.148 78.918 109.576C80.3766 109.032 80.8342 109.032 81.492 109.518ZM54.1504 111.463L55.9522 111.806L55.7806 113.58C55.6948 114.552 55.4946 115.725 55.3516 116.182C55.2086 116.611 55.0084 117.555 54.894 118.27C54.6366 120.386 54.5794 120.415 51.8624 119.843C49.2312 119.328 48.8594 119.128 49.1454 118.413C49.2884 118.041 49.5172 117.955 50.1178 118.098C53.0636 118.785 53.5784 118.642 53.607 117.212C53.607 116.554 53.3496 116.44 51.5192 116.096C50.6326 115.953 50.4324 115.81 50.5182 115.296C50.604 114.638 50.9758 114.609 52.8062 114.981C53.8358 115.181 53.8644 115.153 54.1218 114.237C54.2648 113.694 54.3506 113.179 54.2934 113.093C54.2362 113.008 53.4068 112.75 52.463 112.55C50.6326 112.15 50.318 111.921 50.5754 111.206C50.7184 110.891 50.9758 110.805 51.5478 110.948C51.9768 111.034 53.1494 111.263 54.1504 111.463ZM74.8282 111.864C75.4002 113.923 76.4298 118.985 76.3154 119.185C76.2296 119.328 75.915 119.414 75.629 119.414C75.0284 119.414 74.8854 119.014 74.0274 115.124C73.2552 111.635 73.2266 111.377 73.6556 111.091C74.2562 110.72 74.5708 110.92 74.8282 111.864ZM71.6536 113.122C71.768 113.837 71.9396 115.725 72.054 117.326C72.2542 120.186 72.2542 120.272 71.6822 120.272C71.2818 120.272 70.3666 119.443 69.0224 117.841C67.8784 116.497 66.906 115.467 66.8488 115.524C66.7916 115.582 66.8774 116.668 67.049 117.955C67.3922 120.444 67.3064 120.844 66.5056 120.844C65.905 120.844 65.7906 120.415 65.333 116.411C64.904 112.521 64.9326 112.264 65.7048 112.264C66.2196 112.264 66.8774 112.893 68.3646 114.752C70.5668 117.526 70.7098 117.469 70.2236 114.237C69.8518 112.007 69.9662 111.606 70.8528 111.749C71.3676 111.806 71.5106 112.092 71.6536 113.122ZM62.5588 113.093C63.3024 113.808 63.5312 115.181 63.3024 117.383C63.1308 118.985 62.9878 119.357 62.2156 120.043C60.8714 121.244 59.2984 121.159 57.9828 119.843C56.9246 118.785 56.8674 118.184 57.8112 118.041C58.183 117.984 58.5548 118.213 58.8694 118.67C59.4128 119.528 60.757 119.671 61.329 118.985C61.8724 118.327 62.044 114.809 61.5578 114.237C60.8714 113.351 59.9848 113.294 59.184 114.094C58.326 114.981 57.325 115.095 57.325 114.323C57.325 113.637 58.7264 112.35 59.613 112.207C60.614 112.064 61.9296 112.436 62.5588 113.093Z"></path>
</mask>
<path d="M54.7224 1.00994C35.8178 3.52674 19.1154 14.595 9.47717 31.0114C5.90217 37.1032 3.78577 42.3942 2.32717 49.058C1.32617 53.5768 0.954367 57.2662 0.982967 62.5C1.01157 70.2506 1.61217 73.9972 3.98597 81.948C5.70197 87.668 9.67737 95.104 13.8244 100.452C26.6372 116.897 46.886 125.906 67.4494 124.305C82.1212 123.189 95.4775 117.298 105.773 107.402C114.668 98.8506 120.56 88.669 123.362 77.0288C124.707 71.5376 124.935 69.4212 124.935 62.786C124.964 55.7504 124.621 52.8618 123.076 46.8844C119.244 31.9838 110.121 19.2568 96.9647 10.5337C93.7901 8.41734 87.2978 5.21415 83.6084 3.92715C74.6852 0.809744 64.2462 -0.24846 54.7224 1.00994ZM60.042 7.61655L60.328 11.163L61.901 11.1916C64.1604 11.2488 64.189 11.2487 64.189 11.8493C64.189 12.307 63.903 12.4213 62.3872 12.5929C61.4148 12.7073 60.2136 12.7359 59.756 12.6787C58.9552 12.5929 58.898 12.4786 58.6978 11.163C58.3546 8.56035 58.4404 4.21314 58.8408 4.07014C59.613 3.75554 59.756 4.18454 60.042 7.61655ZM67.1634 4.04154C67.5066 4.18454 67.5638 4.55634 67.4208 6.10075L67.2778 8.01695L69.1082 6.21515C70.2236 5.12835 71.1674 4.44194 71.5678 4.44194C72.483 4.44194 72.34 4.87094 70.91 6.41534L69.623 7.78815L70.195 9.18955C70.5382 9.96175 71.0244 11.0486 71.339 11.6492C71.911 12.7646 71.8538 13.0219 70.91 13.0219C70.3952 13.0219 70.1092 12.6502 69.48 11.163C69.051 10.1334 68.5648 9.21815 68.3932 9.10375C67.8784 8.78915 66.763 10.3907 66.763 11.4203C66.763 12.0495 66.5914 12.45 66.3054 12.5644C65.476 12.879 65.2472 12.4214 65.4188 10.6196C65.5046 9.67575 65.6762 7.90254 65.7906 6.72994C65.905 5.55734 66.1052 4.41334 66.2768 4.21314C66.5914 3.81274 66.5914 3.81274 67.1634 4.04154ZM53.5498 5.07114C54.2076 5.87194 57.611 11.9923 57.611 12.3355C57.611 13.0505 56.2954 12.7932 55.9522 11.9924C55.7234 11.5062 55.4374 11.3059 55.0942 11.4203C54.8368 11.5061 54.1504 11.6492 53.5784 11.735C52.7204 11.9066 52.4916 12.0781 52.2628 12.8217C52.0912 13.4509 51.8052 13.7656 51.3762 13.8228C50.604 13.9372 50.604 14.0516 51.462 9.18955C52.2056 5.01395 52.6918 4.04154 53.5498 5.07114ZM75.7434 5.52875C75.8864 5.75755 75.629 7.15894 74.8854 10.4479C74.6566 11.4775 74.3992 12.593 74.3134 12.9648C74.2276 13.451 73.9988 13.594 73.5412 13.5368C72.769 13.4224 72.7976 12.6788 73.6556 9.01795C73.9416 7.67375 74.2848 6.30095 74.342 5.92915C74.485 5.32855 75.4288 5.04255 75.7434 5.52875ZM48.6592 9.87595C48.8308 11.9923 48.9166 13.9658 48.8308 14.2232C48.5448 15.2814 47.6582 14.738 46.1996 12.5929C45.3702 11.4203 44.6266 10.4479 44.5408 10.4479C44.455 10.4479 44.4264 11.7064 44.4836 13.2222C44.598 15.882 44.5694 16.025 43.9974 16.1108C43.5398 16.168 42.9392 15.5101 41.0516 12.7359C39.7646 10.8483 38.7922 9.16095 38.878 9.01795C39.3642 8.24575 40.2222 8.81775 41.4806 10.734C42.2242 11.8208 42.882 12.7359 42.9392 12.7359C43.025 12.7359 43.025 11.5348 42.9964 10.0761C42.882 7.58795 42.9106 7.44495 43.4826 7.35915C43.9116 7.30195 44.4264 7.78814 45.599 9.44695C46.4284 10.6195 47.172 11.5633 47.2292 11.5061C47.2864 11.4489 47.2006 10.3336 47.0576 9.01795C46.7716 6.30095 46.8574 5.81475 47.7154 5.92915C48.2874 6.01495 48.3446 6.27234 48.6592 9.87595ZM79.8618 6.64415C80.0048 6.93015 80.4052 8.24575 80.777 9.58995C81.1202 10.9342 81.492 12.1353 81.635 12.2497C81.7494 12.3927 82.1784 11.4776 82.5788 10.2477C83.2653 8.07415 83.8658 7.41635 84.5236 8.07415C84.8382 8.38875 82.636 15.1955 82.0354 15.882C81.349 16.597 80.6626 15.453 79.919 12.3928C79.5472 10.877 79.1468 9.67575 79.061 9.73295C78.9466 9.81875 78.5748 10.734 78.2316 11.7922C77.917 12.8504 77.5166 13.9086 77.3736 14.1374C77.0876 14.595 75.8006 14.2804 76.0008 13.7942C76.058 13.594 76.6872 11.8207 77.345 9.79015C78.3174 6.90154 78.6606 6.15794 79.0896 6.15794C79.3756 6.15794 79.7188 6.38675 79.8618 6.64415ZM90.072 10.5623C91.1302 11.0199 91.9311 12.2784 91.9311 13.451C91.9311 14.0516 91.8166 14.1946 91.3018 14.1088C90.8728 14.0516 90.6155 13.7369 90.4439 13.0791C90.1293 11.9351 89.0997 11.3632 88.1273 11.7922C87.7841 11.9638 87.1262 12.8218 86.6972 13.6798C85.5532 16.025 85.6962 16.883 87.2406 17.1976C87.8698 17.312 88.2702 17.2262 88.5848 16.883C89.214 16.2538 89.1855 15.9678 88.4991 15.596C87.8985 15.2814 87.7269 14.595 88.2131 14.309C88.4991 14.1374 90.6441 15.1097 90.9015 15.5387C91.1589 15.9964 89.6431 18.0842 88.785 18.456C87.5552 18.9708 86.0966 18.599 85.2386 17.5694C84.1518 16.2824 84.1518 15.3672 85.3531 13.0219C86.7259 10.3335 87.9556 9.67575 90.072 10.5623ZM36.1324 15.167C38.9352 19.5714 38.6778 20.172 34.7024 18.3416C31.0416 16.6828 31.0702 16.6828 32.7004 19.1996C33.7586 20.8584 34.0446 21.5448 33.8158 21.8022C33.6442 22.0024 33.3582 22.174 33.1866 22.174C33.015 22.174 31.8424 20.6296 30.6126 18.7134C28.5534 15.5674 28.3818 15.2242 28.8108 14.8238C29.2398 14.3948 29.5258 14.4806 32.3 15.6818C35.6748 17.1404 35.7034 17.1404 33.8444 14.4234C32.6718 12.6788 32.5574 11.878 33.5012 11.878C33.8444 11.878 34.731 12.9934 36.1324 15.167ZM99.7389 16.9688C100.797 17.8268 101.655 18.6848 101.655 18.9136C101.655 19.6 101.083 19.6286 100.168 18.9994L99.2813 18.3702L98.7379 19.0566C95.5919 22.9748 94.7625 23.8614 94.3621 23.7184C93.5899 23.4038 93.9045 22.603 95.8207 20.315C96.8503 19.0566 97.7655 17.8554 97.8513 17.6552C97.9371 17.4264 97.6797 16.9688 97.1935 16.597C96.5071 16.0536 96.4213 15.882 96.7645 15.4816C97.2221 14.9382 97.2507 14.9668 99.7389 16.9688ZM26.8088 17.455C26.9232 17.7124 26.437 18.3416 25.5218 19.1424L24.0346 20.4294L24.721 21.173C25.0928 21.5734 25.4932 21.888 25.6076 21.888C25.7506 21.888 26.294 21.4876 26.8088 21.03C27.3522 20.5438 28.01 20.172 28.2674 20.172C29.0682 20.172 28.7536 21.2302 27.724 22.0024C26.5228 22.9176 26.4942 23.2894 27.438 24.176L28.153 24.8624L29.3828 23.6612C30.6412 22.4028 31.4134 22.1454 31.6708 22.889C31.871 23.3752 28.3818 26.5498 27.7812 26.4068C27.152 26.2638 22.433 20.9156 22.4902 20.4294C22.6046 19.886 25.7506 17.026 26.2654 17.026C26.4942 17.026 26.723 17.2262 26.8088 17.455ZM69.0224 17.598C82.2928 19.5428 93.3611 26.464 100.797 37.475C102.113 39.4198 104.458 43.91 105.259 46.0836C108.633 54.9782 109.263 64.3018 107.06 73.1678C104.915 81.7478 100.654 89.0694 94.1619 95.2756C85.9251 103.141 75.9436 107.288 64.4464 107.602C59.184 107.774 56.2096 107.488 51.9482 106.372C34.731 101.968 22.2328 88.7834 18.429 71.08C17.571 67.1332 17.4852 58.6104 18.2288 54.7208C20.1736 44.8824 24.3492 37.0174 31.2704 30.182C38.3346 23.2036 46.6 19.1424 56.896 17.598C61.4148 16.9116 64.3892 16.9116 69.0224 17.598ZM105.058 21.7736C106.66 23.1178 106.517 25.32 104.715 26.9502C101.912 29.4384 100.797 29.6672 99.1955 28.0656C98.3947 27.2648 98.2231 26.893 98.2231 25.8348C98.2231 24.6336 98.3375 24.4334 100.053 22.8032C101.684 21.2302 102.027 21.03 103.028 21.03C103.857 21.03 104.429 21.2302 105.058 21.7736ZM21.432 23.604C22.0612 23.8614 22.1184 23.9758 21.861 24.4906C21.6322 24.891 21.3462 25.034 20.9458 24.9196C19.7732 24.6336 18.5148 25.9206 18.858 27.036C19.1154 27.8082 21.8038 29.896 22.6046 29.896C23.9774 29.896 24.6638 28.1514 23.6914 27.179C23.2624 26.75 23.1766 26.7786 22.5474 27.322C21.9182 27.9512 21.289 27.894 21.289 27.2362C21.3176 26.7214 22.9192 25.034 23.4054 25.034C23.6342 25.034 24.2062 25.4916 24.6924 26.035C25.9794 27.4936 25.9508 29.0094 24.6066 30.3536C23.2052 31.755 21.8324 31.7264 19.9162 30.2106C17.3136 28.1228 16.8274 27.036 17.714 25.2914C18.1716 24.462 19.6588 23.318 20.3452 23.318C20.5168 23.318 21.003 23.4324 21.432 23.604ZM109.606 27.0932C109.663 27.4078 108.948 28.0942 107.375 29.2096C104.687 31.0972 104.2 31.8122 104.915 32.899C105.63 34.0144 106.574 33.8142 109.12 32.041C110.349 31.183 111.551 30.468 111.779 30.468C112.466 30.468 112.523 31.2402 111.865 31.8122C110.607 32.9562 107.489 35.0154 106.746 35.187C105.23 35.5588 103.085 33.6426 103.085 31.898C103.114 30.6968 103.714 30.0104 106.231 28.2086C108.691 26.464 109.434 26.2066 109.606 27.0932ZM18.2574 31.8694C20.3166 32.2984 22.0326 32.8132 22.0898 32.9848C22.29 33.614 21.6322 34.1002 20.7456 33.9572C20.002 33.8714 19.8018 33.9858 19.1726 35.0154C18.286 36.3882 18.286 36.4168 18.8866 37.0746C19.4014 37.6466 19.1726 38.8478 18.572 38.7048C17.9142 38.5618 13.281 32.3842 13.281 31.6692C13.281 30.8398 13.6242 30.8684 18.2574 31.8694ZM115.097 35.902C115.555 36.8458 115.955 37.904 115.955 38.2472C115.955 39.8774 114.039 41.1072 112.523 40.478C111.551 40.0776 111.636 40.0204 110.178 42.1082C109.406 43.195 109.234 43.2522 108.805 42.4514C108.519 41.9652 108.662 41.6506 109.663 40.3064C110.492 39.2196 110.778 38.5618 110.664 38.19C110.435 37.475 110.063 37.475 108.662 38.19C107.604 38.7334 106.803 38.9336 106.803 38.6476C106.803 38.5904 106.717 38.333 106.631 38.0756C106.517 37.761 107.289 37.2176 109.863 35.9306C111.722 34.9868 113.467 34.2146 113.724 34.2146C114.067 34.186 114.525 34.758 115.097 35.902ZM14.4536 38.047C17.8856 39.5342 18.7722 40.2492 17.714 40.6782C17.428 40.764 16.57 40.5924 15.7978 40.2492L14.3964 39.6486L13.8244 40.9356C13.5384 41.6506 13.281 42.337 13.281 42.48C13.281 42.5944 13.9102 42.9662 14.6824 43.3094C16.3412 44.0244 16.5414 44.2246 16.0552 44.8824C15.7406 45.3114 15.3688 45.197 12.1942 43.7956C10.2494 42.9662 8.53337 42.1368 8.39037 41.9938C8.07577 41.6792 8.33317 40.764 8.76218 40.764C8.90518 40.764 9.56298 41.0214 10.1922 41.336C11.708 42.0796 11.7652 42.051 12.2228 41.1072C13.1666 39.2768 13.138 39.1338 11.5936 38.4474C10.2208 37.8754 9.76318 37.2176 10.3352 36.6742C10.6212 36.3596 10.707 36.3882 14.4536 38.047ZM117.328 42.3656C118.558 43.2236 119.215 45.4258 118.558 46.4554C118.1 47.1704 117.385 46.5698 117.385 45.483C117.385 44.1674 116.956 43.338 116.27 43.338C115.354 43.338 115.011 44.053 115.24 45.5974C115.469 47.342 115.097 48.1142 113.781 48.6576C112.523 49.1724 111.551 48.8006 110.578 47.342C109.663 45.9978 109.749 43.8242 110.75 43.6812C111.322 43.5954 111.379 43.7098 111.379 44.7394C111.379 46.4268 111.894 47.342 112.838 47.342C113.81 47.342 113.896 47.056 113.724 44.9968C113.61 43.5382 113.667 43.3094 114.325 42.6516C115.183 41.7936 116.355 41.6792 117.328 42.3656ZM11.2218 45.9406C13.2238 46.4268 14.9684 46.913 15.0828 47.056C15.7406 47.6566 14.6252 48.4574 11.851 49.3726C10.278 49.8874 8.99098 50.4022 8.99098 50.488C8.99098 50.5738 10.0492 50.8884 11.3362 51.203C13.138 51.632 13.7386 51.8894 13.7958 52.3184C13.853 52.6044 13.7958 52.9476 13.6528 53.062C13.5384 53.1764 11.7652 52.8618 9.70598 52.3184C7.67537 51.8036 5.90217 51.3746 5.78777 51.346C5.64477 51.346 5.55897 51.0314 5.55897 50.6596C5.55897 49.9446 5.70197 49.8588 9.90618 48.4288L11.8224 47.7996L10.993 47.4278C10.5354 47.2562 9.59158 46.9988 8.87657 46.913C7.30357 46.6556 6.53137 46.1694 6.78877 45.5116C7.01757 44.911 6.98897 44.911 11.2218 45.9406ZM116.355 54.2632C116.584 55.636 116.47 56.494 116.041 56.494C115.44 56.4654 115.154 55.922 114.983 54.4062C114.782 52.776 114.782 52.7188 115.44 52.8332C115.984 52.8904 116.127 53.1764 116.355 54.2632ZM5.95937 55.8362L5.90217 57.8668L6.90317 57.9812C7.98997 58.1242 8.01857 58.0956 8.27597 56.1222C8.41897 55.0354 8.56197 54.778 9.01958 54.778C9.50578 54.778 9.56298 54.9782 9.56298 56.4654C9.56298 58.0956 9.59158 58.1528 10.4496 58.3244C11.565 58.5532 11.851 58.353 11.851 57.4092C11.851 56.9802 11.9368 56.1508 12.0512 55.5502C12.1942 54.6636 12.3086 54.4634 12.8234 54.5492C13.3382 54.635 13.424 54.8066 13.3668 55.779C13.1952 58.4388 12.9378 59.8974 12.6232 60.0118C12.2514 60.1262 5.41597 59.4398 4.75817 59.211C4.44357 59.0966 4.41497 58.5818 4.55797 56.8372C4.78677 54.0058 4.92977 53.5768 5.50177 53.6912C5.90217 53.777 5.98797 54.1488 5.95937 55.8362ZM8.90517 62.2712C9.30558 62.643 9.56298 63.215 9.56298 63.7584C9.56298 65.7032 9.76318 65.932 11.4506 65.932C12.995 65.932 13.3954 66.1608 13.138 66.8758C12.9092 67.4192 4.95837 67.791 4.64377 67.2762C4.21477 66.6184 4.38637 63.2436 4.87257 62.5572C5.78777 61.213 7.67537 61.0986 8.90517 62.2712ZM12.8234 69.9074C14.2248 71.1086 14.3678 73.368 13.1094 74.512C12.423 75.1698 9.82038 75.942 8.21877 75.942C6.96037 75.942 5.58757 74.6836 5.38737 73.368C5.04417 71.223 6.15957 70.0504 9.10537 69.4784C11.0502 69.1066 12.0226 69.221 12.8234 69.9074ZM120.989 70.937C121.36 71.8522 120.56 72.1954 117.871 72.2812L115.24 72.367L117.614 73.7398C120.817 75.5988 120.731 75.9992 117.128 76.371C114.096 76.6856 114.096 76.7428 117.185 78.2014C118.529 78.8592 119.101 79.2882 119.101 79.66C119.101 79.946 118.958 80.2892 118.815 80.375C118.5 80.5752 112.123 77.3434 111.379 76.6284C111.064 76.3138 111.036 76.085 111.265 75.7132C111.522 75.3414 112.123 75.1984 114.268 75.084L116.956 74.941L114.468 73.5682C110.635 71.4804 111.036 70.8512 116.27 70.7082C118.214 70.6796 120.045 70.5938 120.331 70.5652C120.617 70.5366 120.903 70.7082 120.989 70.937ZM14.2534 76.8C15.14 77.1432 15.855 78.4588 15.855 79.803C15.855 81.2902 14.7396 82.2912 12.2228 83.0634C10.2494 83.6926 10.135 83.6926 9.13398 83.2064C7.21777 82.3198 6.70297 80.089 8.04717 78.516C8.76217 77.658 8.84798 77.6294 9.19118 78.1156C9.50578 78.5446 9.47718 78.7162 9.13398 79.2596C8.61917 80.0604 8.59057 81.1472 9.04817 81.6048C9.59158 82.1482 11.136 82.0052 12.852 81.2616C14.3392 80.5752 14.425 80.4894 14.425 79.517C14.425 78.6018 14.3106 78.4302 13.424 78.0584C12.7662 77.801 12.423 77.4578 12.423 77.086C12.423 76.4568 13.0808 76.3424 14.2534 76.8ZM114.039 81.4904C118.186 85.4372 118.157 85.4944 112.523 85.3228C110.206 85.237 108.176 85.094 108.004 84.9796C107.375 84.6078 108.176 83.664 109.12 83.664C109.863 83.664 110.035 83.4924 110.521 82.377C111.093 81.0328 111.036 80.375 110.349 80.1176C109.949 79.946 109.806 79.0594 110.149 78.7162C110.55 78.2872 111.064 78.659 114.039 81.4904ZM111.036 87.954C113.209 89.2124 114.239 89.9846 114.239 90.3278C114.239 91.3288 113.41 91.1 110.635 89.4126C107.518 87.525 107.461 87.525 106.488 89.4412C105.859 90.6424 105.23 91.0714 104.744 90.5852C104.515 90.3564 104.715 89.7844 105.373 88.6118C106.488 86.6384 107.089 85.8948 107.518 86.0092C107.69 86.0664 109.291 86.9244 111.036 87.954ZM18.4004 90.4422C19.0296 91.4432 19.1726 91.9008 18.9438 92.1582C18.7722 92.3584 18.5434 92.53 18.429 92.53C18.0286 92.53 16.4556 89.9274 16.6272 89.4984C16.9132 88.7548 17.571 89.098 18.4004 90.4422ZM107.089 93.8742C108.805 95.2184 110.235 96.5054 110.235 96.677C110.235 96.8772 110.063 97.1632 109.863 97.3348C109.606 97.5636 109.148 97.3634 108.09 96.534C107.318 95.9334 106.631 95.4472 106.603 95.5044C106.546 95.533 106.746 96.6484 107.003 97.9354C107.375 99.6514 107.432 100.395 107.203 100.767C106.66 101.596 106.403 101.31 105.945 99.4798C105.716 98.5074 105.43 97.6208 105.316 97.535C105.23 97.4206 104 97.1918 102.599 97.0202C100.397 96.7056 100.082 96.6198 100.082 96.105C100.082 95.5616 100.254 95.533 102.627 95.6188L105.144 95.7046L104.973 94.9038C104.858 94.4748 104.372 93.7026 103.886 93.1878C103.142 92.4156 103.056 92.1868 103.371 91.815C103.571 91.5862 103.771 91.386 103.829 91.386C103.886 91.386 105.344 92.5014 107.089 93.8742ZM104.429 103.598C103.972 104.084 103.8 103.941 101.083 101.253C98.3661 98.536 97.7655 97.6208 98.5949 97.3062C98.7665 97.2204 100.282 98.5074 101.941 100.138C104.772 102.94 104.915 103.141 104.429 103.598ZM29.3542 99.3654C30.4982 100.395 30.6126 101.882 29.6116 102.94C28.7536 103.856 23.6628 105.886 23.2338 105.457C22.719 104.942 23.1766 104.399 24.4064 103.97C25.865 103.512 26.0652 103.226 25.4646 102.569C24.864 101.911 24.8926 100.967 25.4932 99.966C26.4084 98.393 27.9814 98.1356 29.3542 99.3654ZM99.2527 102.54C102.656 106.887 102.484 107.402 98.0229 105.943C96.4785 105.457 95.1343 104.971 95.0199 104.914C94.5623 104.656 94.8483 105.114 96.3641 107.087C97.2221 108.203 97.9371 109.175 97.9371 109.261C97.9371 109.318 97.6797 109.518 97.3651 109.69C96.8789 109.947 96.5357 109.633 94.3621 106.944C92.0169 104.027 91.5306 103.026 92.3028 102.74C92.4744 102.683 93.9903 103.055 95.6205 103.57C97.2793 104.113 98.6521 104.485 98.7093 104.456C98.7379 104.399 98.0801 103.484 97.2221 102.397C95.6205 100.395 95.5061 100.195 95.8493 99.8802C96.3927 99.3082 97.1935 99.9374 99.2527 102.54ZM34.9312 103.884C35.017 104.084 34.4164 104.571 33.6156 104.971C32.8148 105.371 32.157 105.772 32.157 105.829C32.157 105.915 32.4144 106.229 32.729 106.544C33.5298 107.345 33.444 108.603 32.5574 109.661C31.9568 110.405 31.6136 110.548 30.584 110.548C29.5544 110.548 29.2112 110.405 28.582 109.633C27.152 107.945 27.9814 106.487 31.4706 104.513C33.4154 103.455 34.731 103.198 34.9312 103.884ZM90.3294 105.514C91.3304 105.915 93.1037 108.489 93.4755 110.033C93.8759 111.778 92.2457 113.694 90.3867 113.694C89.3284 113.694 88.2131 113.093 88.2131 112.521C88.2131 111.921 88.8423 111.663 89.3857 112.007C89.9577 112.378 91.1875 112.321 91.5879 111.921C92.3315 111.177 91.7594 109.061 90.358 107.288C89.9004 106.687 88.3847 106.544 87.8699 107.059C87.5266 107.402 87.4123 109.004 87.7269 109.318C87.8413 109.404 88.2702 109.347 88.6992 109.147C89.4142 108.803 89.9004 109.061 89.929 109.747C89.929 110.005 87.8126 111.12 87.3836 111.12C86.9546 111.12 85.925 109.004 85.925 108.174C85.925 107.259 86.926 106.001 88.0415 105.514C89.1569 105.028 89.1854 105.028 90.3294 105.514ZM40.0792 107.002C40.1364 107.173 39.593 107.717 38.878 108.231L37.5624 109.175L38.306 109.833C39.3356 110.805 39.307 112.321 38.1916 113.437C37.2478 114.352 36.2754 114.495 35.0456 113.837C34.1304 113.379 33.873 112.893 33.873 111.606C33.9016 110.434 34.1876 110.09 36.733 108.146C38.735 106.63 39.8218 106.258 40.0792 107.002ZM44.5122 108.889C44.9126 109.232 44.8268 109.547 43.8544 111.978C43.2538 113.465 42.7676 114.781 42.739 114.895C42.739 115.038 43.0536 115.124 43.454 115.124C44.2262 115.124 44.4264 115.725 43.8258 116.182C42.9392 116.869 40.737 116.926 40.737 116.268C40.737 115.782 43.6542 108.546 43.8544 108.546C43.9688 108.546 44.2548 108.718 44.5122 108.889ZM81.492 109.518C82.2642 110.062 81.8638 110.948 80.92 110.72C80.5196 110.605 79.7474 110.72 79.1754 110.977C78.3174 111.32 78.1744 111.52 78.2602 112.178C78.346 112.979 78.3746 112.979 80.2908 112.979C82.0926 112.979 82.3214 113.036 82.9506 113.78C83.7228 114.695 83.8372 115.868 83.208 116.754C82.2642 118.127 78.6034 118.728 78.8322 117.469C78.8894 117.126 79.2898 116.926 80.1192 116.811C81.5492 116.64 82.2642 116.096 82.1498 115.296C82.064 114.781 81.8638 114.695 80.4624 114.666C77.4308 114.609 76.7158 114.094 76.7158 112.064C76.7158 110.863 77.345 110.148 78.918 109.576C80.3766 109.032 80.8342 109.032 81.492 109.518ZM54.1504 111.463L55.9522 111.806L55.7806 113.58C55.6948 114.552 55.4946 115.725 55.3516 116.182C55.2086 116.611 55.0084 117.555 54.894 118.27C54.6366 120.386 54.5794 120.415 51.8624 119.843C49.2312 119.328 48.8594 119.128 49.1454 118.413C49.2884 118.041 49.5172 117.955 50.1178 118.098C53.0636 118.785 53.5784 118.642 53.607 117.212C53.607 116.554 53.3496 116.44 51.5192 116.096C50.6326 115.953 50.4324 115.81 50.5182 115.296C50.604 114.638 50.9758 114.609 52.8062 114.981C53.8358 115.181 53.8644 115.153 54.1218 114.237C54.2648 113.694 54.3506 113.179 54.2934 113.093C54.2362 113.008 53.4068 112.75 52.463 112.55C50.6326 112.15 50.318 111.921 50.5754 111.206C50.7184 110.891 50.9758 110.805 51.5478 110.948C51.9768 111.034 53.1494 111.263 54.1504 111.463ZM74.8282 111.864C75.4002 113.923 76.4298 118.985 76.3154 119.185C76.2296 119.328 75.915 119.414 75.629 119.414C75.0284 119.414 74.8854 119.014 74.0274 115.124C73.2552 111.635 73.2266 111.377 73.6556 111.091C74.2562 110.72 74.5708 110.92 74.8282 111.864ZM71.6536 113.122C71.768 113.837 71.9396 115.725 72.054 117.326C72.2542 120.186 72.2542 120.272 71.6822 120.272C71.2818 120.272 70.3666 119.443 69.0224 117.841C67.8784 116.497 66.906 115.467 66.8488 115.524C66.7916 115.582 66.8774 116.668 67.049 117.955C67.3922 120.444 67.3064 120.844 66.5056 120.844C65.905 120.844 65.7906 120.415 65.333 116.411C64.904 112.521 64.9326 112.264 65.7048 112.264C66.2196 112.264 66.8774 112.893 68.3646 114.752C70.5668 117.526 70.7098 117.469 70.2236 114.237C69.8518 112.007 69.9662 111.606 70.8528 111.749C71.3676 111.806 71.5106 112.092 71.6536 113.122ZM62.5588 113.093C63.3024 113.808 63.5312 115.181 63.3024 117.383C63.1308 118.985 62.9878 119.357 62.2156 120.043C60.8714 121.244 59.2984 121.159 57.9828 119.843C56.9246 118.785 56.8674 118.184 57.8112 118.041C58.183 117.984 58.5548 118.213 58.8694 118.67C59.4128 119.528 60.757 119.671 61.329 118.985C61.8724 118.327 62.044 114.809 61.5578 114.237C60.8714 113.351 59.9848 113.294 59.184 114.094C58.326 114.981 57.325 115.095 57.325 114.323C57.325 113.637 58.7264 112.35 59.613 112.207C60.614 112.064 61.9296 112.436 62.5588 113.093Z" fill="white" stroke="white" stroke-width="2" mask="url(#path-1-inside-1_68_1570)"></path>
<path d="M53.235 7.75953C53.1492 8.04553 53.0062 8.78914 52.8918 9.36114C52.7202 10.4193 52.7488 10.4479 53.5782 10.4479C54.7794 10.4479 54.8652 10.1047 54.093 8.53174C53.521 7.44493 53.378 7.30193 53.235 7.75953Z" fill="white"></path>
<path d="M68.8792 24.0616C68.965 24.319 69.0508 25.2914 69.0508 26.2638V27.9798L69.7944 27.2934C70.5094 26.607 70.538 26.607 70.9384 27.179C71.3674 27.7224 71.3674 27.7224 71.1958 26.9788C71.0242 26.321 71.11 26.2066 71.9108 26.035L72.7974 25.8348L70.9384 24.7194C68.8792 23.4896 68.6218 23.4038 68.8792 24.0616Z" fill="white"></path>
<path d="M41.309 27.2934C38.878 27.8082 36.7616 29.7816 36.0466 32.2126C34.9026 35.9878 35.7892 43.338 37.9914 48.772C40.88 55.8362 45.456 63.072 47.0576 63.072C47.315 63.072 49.2026 62.214 51.2332 61.1844C53.2352 60.1548 55.3516 59.068 55.9522 58.7534L56.9818 58.2386L56.5528 56.8658C56.2096 55.7504 56.181 54.4348 56.324 49.916C56.4956 44.8252 56.4384 44.1388 55.895 42.0796C54.4078 36.474 49.7746 29.753 46.171 27.894C44.9126 27.2648 42.739 26.9788 41.309 27.2934Z" fill="white"></path>
<path d="M73.0552 30.039C73.0838 30.182 73.5414 30.8398 74.0848 31.469C74.6568 32.0982 74.9714 32.3556 74.7998 32.041C74.3422 31.2116 73.0552 29.6958 73.0552 30.039Z" fill="white"></path>
<path d="M76.3726 35.616C76.6014 36.8458 76.773 37.0746 76.773 36.1594C76.773 35.7876 76.63 35.2728 76.487 35.044C76.2868 34.7294 76.2582 34.901 76.3726 35.616Z" fill="white"></path>
<path d="M76.916 46.198C75.2858 46.5984 74.056 47.2848 72.9978 48.3716C69.9948 51.5176 68.5934 58.9822 69.766 65.7032C70.2808 68.5632 70.767 69.8788 72.4258 72.5672C74.3134 75.6274 75.343 77.8582 75.5432 79.231C75.629 79.946 75.8578 80.6324 76.0294 80.7754C76.201 80.8898 78.6892 81.09 81.5778 81.2044L86.8116 81.376L87.5266 79.7744C88.6992 77.1146 89.1568 73.1392 88.9566 67.505C88.7278 61.8422 88.4704 59.8116 87.4694 56.494C85.7534 50.8884 83.1508 47.2276 80.1478 46.341C78.5462 45.8834 78.2316 45.8548 76.916 46.198Z" fill="white"></path>
<path d="M58.3259 62.4714C58.1543 62.6144 56.0665 63.8442 53.6927 65.217C51.2903 66.5898 49.3169 67.7624 49.3169 67.8196C49.3169 67.8768 49.6315 68.792 50.0319 69.8216C51.4619 73.6254 53.5497 76.514 55.8091 77.8582C58.4975 79.4312 62.1583 78.5732 63.5597 75.9992C65.3329 72.796 63.4167 65.932 59.9275 62.9862C58.9265 62.1568 58.7263 62.071 58.3259 62.4714Z" fill="white"></path>
<path d="M61.2146 85.7518C61.1288 86.5812 60.9572 87.5536 60.8428 87.954L60.6426 88.669L61.4434 88.1542C61.8438 87.8682 62.33 87.7252 62.473 87.811C62.6446 87.8968 62.759 87.8682 62.759 87.6966C62.759 87.5536 63.2166 87.382 63.76 87.3248L64.7896 87.239L63.1022 85.7518L61.4148 84.2646L61.2146 85.7518Z" fill="white"></path>
<path d="M75.2859 86.6956C74.7425 87.8968 74.6567 88.6118 74.6567 91.672C74.6567 94.7608 74.7425 95.4472 75.2859 96.6484C76.6015 99.5656 78.2031 100.824 80.4911 100.824C84.9813 100.824 87.6412 96.3624 87.2694 89.4126C87.1836 87.7824 87.0692 86.4096 87.012 86.381C86.9548 86.3238 85.0099 86.1522 82.6361 85.9806C80.2909 85.809 77.8027 85.5802 77.1449 85.4944L75.9151 85.3228L75.2859 86.6956Z" fill="white"></path>
<path d="M63.0735 89.2696C63.0735 89.5842 63.1593 89.67 63.2451 89.4412C63.3309 89.241 63.3023 88.9836 63.2165 88.8978C63.1307 88.7834 63.0449 88.955 63.0735 89.2696Z" fill="white"></path>
<path d="M64.4751 92.5014C64.4751 92.673 64.5895 92.8732 64.7611 92.959C64.9327 93.0448 64.9613 92.9304 64.8755 92.7016C64.6753 92.1868 64.4751 92.101 64.4751 92.5014Z" fill="white"></path>
<path d="M65.0469 93.5882C65.0469 93.7312 65.3329 94.1316 65.6475 94.532L66.2195 95.247L65.7619 94.3032C65.3329 93.4452 65.0469 93.1306 65.0469 93.5882Z" fill="white"></path>
<path d="M69.137 98.965C69.9092 99.68 70.6814 100.252 70.853 100.252C70.996 100.252 70.5384 99.7944 69.8234 99.2224C69.0798 98.6504 68.4792 98.0498 68.4792 97.9354C68.4792 97.7924 68.3076 97.678 68.136 97.678C67.9358 97.7066 68.3934 98.2786 69.137 98.965Z" fill="white"></path>
<path d="M101.083 23.7756C99.5102 25.2342 99.2242 26.2924 100.168 27.1218C101.026 27.894 101.598 27.6938 103.257 26.1494C104.916 24.5764 105.173 23.747 104.286 22.9462C103.428 22.1454 102.57 22.3742 101.083 23.7756Z" fill="white"></path>
<path d="M15.7405 33.0992C16.3697 34.1574 17.1419 35.044 17.4279 35.044C17.7425 35.044 18.5719 33.6426 18.3717 33.471C18.3145 33.4424 17.8569 33.2708 17.3135 33.0706C16.0265 32.6416 15.4831 32.6702 15.7405 33.0992Z" fill="white"></path>
<path d="M112.323 36.3596L111.408 36.8172L111.98 37.9326C112.437 38.8478 112.695 39.048 113.381 39.048C114.468 39.048 114.783 38.0756 114.125 36.7886C113.581 35.759 113.553 35.759 112.323 36.3596Z" fill="white"></path>
<path d="M6.04542 63.2722C5.93101 63.358 5.84521 64.0158 5.84521 64.7022V65.932H7.16082H8.47642L8.27622 64.7022C8.16182 64.0444 8.01882 63.4152 7.93302 63.2722C7.79002 63.0148 6.30282 63.0148 6.04542 63.2722Z" fill="white"></path>
<path d="M8.84813 71.0514C7.27513 71.4232 6.70312 71.9094 6.70312 72.7674C6.70312 73.8542 7.36093 74.369 8.70513 74.3118C11.8225 74.1688 13.3097 73.0248 12.3087 71.509C11.8225 70.7654 10.7357 70.5938 8.84813 71.0514Z" fill="white"></path>
<path d="M111.865 82.4342C111.808 82.7202 111.636 83.1778 111.522 83.4352C111.35 83.8928 111.493 83.95 112.98 83.95L114.668 83.9214L113.552 82.949C112.265 81.805 112.065 81.7478 111.865 82.4342Z" fill="white"></path>
<path d="M26.923 100.481C26.351 101.11 26.2938 101.711 26.78 102.197C27.3234 102.74 28.067 102.597 28.5532 101.911C29.1252 101.11 29.1252 100.967 28.5532 100.424C27.9812 99.823 27.495 99.8516 26.923 100.481Z" fill="white"></path>
<path d="M29.726 107.516C29.2112 108.289 29.4114 109.032 30.2122 109.29C30.87 109.49 31.871 108.689 31.871 107.974C31.871 106.773 30.4124 106.458 29.726 107.516Z" fill="white"></path>
<path d="M35.7319 110.72C35.4745 110.977 35.3029 111.52 35.3601 111.949C35.5317 113.322 37.5909 112.979 37.5909 111.578C37.5909 110.376 36.5613 109.89 35.7319 110.72Z" fill="white"></path>
</svg><style>@media (prefers-color-scheme: light) { :root { filter: contrast(1) brightness(0.1); } }
@media (prefers-color-scheme: dark) { :root { filter: contrast(1) brightness(1); } }
</style></svg>