<svg width="58" height="61" viewBox="0 0 58 61" fill="none" xmlns="http://www.w3.org/2000/svg">
<ellipse cx="29" cy="30.3364" rx="29" ry="30.3364" fill="#DA4167"/>
<path d="M24.0002 18.1321H20.6668C19.7828 18.1321 18.9349 18.4995 18.3098 19.1534C17.6847 19.8073 17.3335 20.6942 17.3335 21.619V42.5407C17.3335 43.4655 17.6847 44.3524 18.3098 45.0063C18.9349 45.6603 19.7828 46.0276 20.6668 46.0276H37.3335C38.2176 46.0276 39.0654 45.6603 39.6905 45.0063C40.3156 44.3524 40.6668 43.4655 40.6668 42.5407V21.619C40.6668 20.6942 40.3156 19.8073 39.6905 19.1534C39.0654 18.4995 38.2176 18.1321 37.3335 18.1321H34.0002" stroke="white" stroke-width="3" stroke-linecap="round" stroke-linejoin="round"/>
<path d="M30.6667 14.6451H27.3333C25.4924 14.6451 24 16.2063 24 18.1321C24 20.0579 25.4924 21.619 27.3333 21.619H30.6667C32.5076 21.619 34 20.0579 34 18.1321C34 16.2063 32.5076 14.6451 30.6667 14.6451Z" stroke="white" stroke-width="3" stroke-linecap="round" stroke-linejoin="round"/>
<path d="M32.3332 28.5929H28.1665C27.5035 28.5929 26.8676 28.8684 26.3987 29.3589C25.9299 29.8493 25.6665 30.5145 25.6665 31.2081C25.6665 31.9017 25.9299 32.5669 26.3987 33.0573C26.8676 33.5478 27.5035 33.8233 28.1665 33.8233H29.8332C30.4962 33.8233 31.1321 34.0988 31.6009 34.5893C32.0698 35.0797 32.3332 35.7449 32.3332 36.4385C32.3332 37.1321 32.0698 37.7973 31.6009 38.2877C31.1321 38.7782 30.4962 39.0537 29.8332 39.0537H25.6665" stroke="white" stroke-width="3" stroke-linecap="round" stroke-linejoin="round"/>
<path d="M29 39.0539V40.7974M29 26.8496V28.5931" stroke="white" stroke-width="3" stroke-linecap="round" stroke-linejoin="round"/>
</svg>
