<svg width="30" height="49" viewBox="0 0 30 49" fill="none" xmlns="http://www.w3.org/2000/svg">
<path d="M23.9951 5.04561C23.9951 7.52874 21.9804 9.54336 19.4973 9.54336C17.0142 9.54336 14.9995 7.52874 14.9995 5.04561C14.9995 2.56247 17.0142 0.547852 19.4973 0.547852C21.9804 0.547852 23.9951 2.56247 23.9951 5.04561ZM11.8605 19.2229C11.7668 19.2604 11.6825 19.2979 11.5887 19.3354L10.8391 19.6633C9.30239 20.3473 8.12173 21.6498 7.58762 23.2428L7.34399 23.9737C6.81925 25.5479 5.12323 26.3912 3.54901 25.8665C1.9748 25.3417 1.13147 23.6457 1.6562 22.0715L1.89983 21.3406C2.96805 18.1453 5.32937 15.5404 8.40284 14.1723L9.15246 13.8443C11.1015 12.9823 13.2098 12.5325 15.3462 12.5325C19.5254 12.5325 23.2923 15.0437 24.8946 18.8949L26.3376 22.3526L28.3429 23.3552C29.8234 24.0955 30.4231 25.8946 29.6829 27.3751C28.9426 28.8556 27.1435 29.4553 25.663 28.715L23.1517 27.4688C22.1866 26.9815 21.4276 26.1757 21.0153 25.1731L20.1157 23.0179L18.3073 29.1555L22.9456 34.2154C23.4516 34.7683 23.8077 35.4336 23.9951 36.1645L26.1502 44.7945C26.5532 46.3969 25.5786 48.0273 23.9669 48.4302C22.3553 48.8331 20.7342 47.8586 20.3313 46.2469L18.2698 37.9917L11.645 30.7672C10.2582 29.2585 9.7428 27.1502 10.2675 25.1731L11.8511 19.2229H11.8605ZM6.44444 37.8417L8.78702 31.9947C8.9838 32.2758 9.20869 32.5381 9.44294 32.8005L13.2567 36.9609L11.898 40.353C11.6731 40.9152 11.3358 41.4306 10.9047 41.8616L5.12323 47.6431C3.95193 48.8144 2.04976 48.8144 0.878468 47.6431C-0.292823 46.4718 -0.292823 44.5696 0.878468 43.3983L6.44444 37.8417Z" fill="white"/>
</svg>
